<?xml version="1.0" encoding="UTF-8"?>
<!DOCTYPE svg PUBLIC "-//W3C//DTD SVG 1.1//EN" "http://www.w3.org/Graphics/SVG/1.1/DTD/svg11.dtd">
<svg xmlns="http://www.w3.org/2000/svg" version="1.1" width="500px" height="500px" style="shape-rendering:geometricPrecision; text-rendering:geometricPrecision; image-rendering:optimizeQuality; fill-rule:evenodd; clip-rule:evenodd" xmlns:xlink="http://www.w3.org/1999/xlink">
<g><path style="opacity:1" fill="#e66143" d="M -0.5,-0.5 C 166.167,-0.5 332.833,-0.5 499.5,-0.5C 499.5,166.167 499.5,332.833 499.5,499.5C 332.833,499.5 166.167,499.5 -0.5,499.5C -0.5,332.833 -0.5,166.167 -0.5,-0.5 Z"/></g>
<g><path style="opacity:1" fill="#040201" d="M 303.5,189.5 C 294.686,181.596 285.686,173.93 276.5,166.5C 287.706,159.896 299.372,154.396 311.5,150C 317.925,158.847 324.591,167.514 331.5,176C 322.479,181.172 313.145,185.672 303.5,189.5 Z"/></g>
<g><path style="opacity:1" fill="#f5f3f2" d="M 276.5,166.5 C 285.686,173.93 294.686,181.596 303.5,189.5C 290.825,195.732 277.825,201.398 264.5,206.5C 255.675,199.921 246.675,193.587 237.5,187.5C 250.014,179.741 263.014,172.741 276.5,166.5 Z"/></g>
<g><path style="opacity:1" fill="#040201" d="M 237.5,187.5 C 246.675,193.587 255.675,199.921 264.5,206.5C 250.354,213.739 236.021,220.739 221.5,227.5C 215.833,219.5 210.167,211.5 204.5,203.5C 215.075,197.38 226.075,192.047 237.5,187.5 Z"/></g>
<g><path style="opacity:1" fill="#f5f2f2" d="M 204.5,203.5 C 210.167,211.5 215.833,219.5 221.5,227.5C 211.49,232.674 201.156,237.007 190.5,240.5C 183.311,234.4 176.311,228.067 169.5,221.5C 180.689,214.738 192.356,208.738 204.5,203.5 Z"/></g>
<g><path style="opacity:1" fill="#030202" d="M 169.5,221.5 C 176.311,228.067 183.311,234.4 190.5,240.5C 188.422,243.051 185.756,244.884 182.5,246C 194.159,246.001 205.826,245.834 217.5,245.5C 212.64,256.054 207.64,266.554 202.5,277C 212.437,276.254 222.437,275.587 232.5,275C 236.658,264.692 240.325,254.192 243.5,243.5C 254.486,242.791 265.486,242.457 276.5,242.5C 272.935,252.36 269.268,262.194 265.5,272C 276.878,272.247 288.211,271.581 299.5,270C 303.132,260.271 306.465,250.438 309.5,240.5C 320.654,239.505 331.988,239.172 343.5,239.5C 343.5,249.167 343.5,258.833 343.5,268.5C 341.167,268.5 338.833,268.5 336.5,268.5C 332.675,292.782 328.342,316.948 323.5,341C 276.505,342.757 229.505,344.257 182.5,345.5C 180.83,323.802 178.83,302.135 176.5,280.5C 173.833,280.5 171.167,280.5 168.5,280.5C 168.5,277.5 168.5,274.5 168.5,271.5C 172.298,270.517 176.298,270.183 180.5,270.5C 184.555,270.824 188.555,270.491 192.5,269.5C 192.376,268.893 192.043,268.56 191.5,268.5C 180.875,256.038 170.042,243.705 159,231.5C 158.829,239.677 158.329,247.677 157.5,255.5C 153.562,247.794 149.229,240.294 144.5,233C 152.299,228.102 160.632,224.269 169.5,221.5 Z"/></g>
<g><path style="opacity:1" fill="#11c87d" d="M 191.5,268.5 C 187.833,269.167 184.167,269.833 180.5,270.5C 176.298,270.183 172.298,270.517 168.5,271.5C 164.833,271.5 161.167,271.5 157.5,271.5C 157.5,266.167 157.5,260.833 157.5,255.5C 158.329,247.677 158.829,239.677 159,231.5C 170.042,243.705 180.875,256.038 191.5,268.5 Z"/></g>
<g><path style="opacity:1" fill="#f2f0f0" d="M 309.5,240.5 C 306.465,250.438 303.132,260.271 299.5,270C 288.211,271.581 276.878,272.247 265.5,272C 269.268,262.194 272.935,252.36 276.5,242.5C 287.318,241.35 298.318,240.684 309.5,240.5 Z"/></g>
<g><path style="opacity:1" fill="#f3f1f0" d="M 243.5,243.5 C 240.325,254.192 236.658,264.692 232.5,275C 222.437,275.587 212.437,276.254 202.5,277C 207.64,266.554 212.64,256.054 217.5,245.5C 226.084,244.438 234.751,243.772 243.5,243.5 Z"/></g>
<g><path style="opacity:1" fill="#f5fdfa" d="M 167.5,252.5 C 172.288,253.123 174.121,255.79 173,260.5C 168.478,265.103 165.644,264.269 164.5,258C 164.863,255.808 165.863,253.974 167.5,252.5 Z"/></g>
<g><path style="opacity:1" fill="#006c43" d="M 191.5,268.5 C 192.043,268.56 192.376,268.893 192.5,269.5C 188.555,270.491 184.555,270.824 180.5,270.5C 184.167,269.833 187.833,269.167 191.5,268.5 Z"/></g>
<g><path style="opacity:1" fill="#ececec" d="M 285.5,303.5 C 284.666,302.252 283.333,301.585 281.5,301.5C 279.955,301.511 278.622,301.844 277.5,302.5C 263.503,302.949 249.503,303.282 235.5,303.5C 235.507,312.229 236.173,320.896 237.5,329.5C 235.5,329.5 233.5,329.5 231.5,329.5C 230.029,321.243 229.363,312.91 229.5,304.5C 215.493,304.834 201.493,305.001 187.5,305C 186.663,303.989 186.33,302.822 186.5,301.5C 207.833,300.833 229.167,300.167 250.5,299.5C 250.031,292.477 249.364,285.477 248.5,278.5C 251.238,277.965 253.072,278.965 254,281.5C 255.162,287.445 255.662,293.445 255.5,299.5C 278.479,297.901 301.479,297.068 324.5,297C 325.357,297.689 326.023,298.522 326.5,299.5C 314.865,300.726 303.198,301.393 291.5,301.5C 292.496,308.801 293.163,316.134 293.5,323.5C 291.533,323.739 289.699,323.406 288,322.5C 287.084,316.167 286.25,309.834 285.5,303.5 Z"/></g>
<g><path style="opacity:1" fill="#616161" d="M 277.5,302.5 C 278.622,301.844 279.955,301.511 281.5,301.5C 283.333,301.585 284.666,302.252 285.5,303.5C 282.946,302.612 280.279,302.279 277.5,302.5 Z"/></g>
<g><path style="opacity:1" fill="#e7e7e7" d="M 287.5,332.5 C 291.976,332.8 293.31,334.967 291.5,339C 286.791,339.082 285.458,336.915 287.5,332.5 Z"/></g>
<g><path style="opacity:1" fill="#ececec" d="M 272.5,333.5 C 276.029,332.889 277.862,334.223 278,337.5C 275.147,340.318 272.647,340.152 270.5,337C 270.978,335.697 271.645,334.531 272.5,333.5 Z"/></g>
<g><path style="opacity:1" fill="#e5e5e5" d="M 300.5,333.5 C 302.977,333.051 304.977,333.717 306.5,335.5C 305.259,338.144 303.259,338.977 300.5,338C 299.272,336.51 299.272,335.01 300.5,333.5 Z"/></g>
<g><path style="opacity:1" fill="#dfdfdf" d="M 314.5,332.5 C 318.35,332.701 319.35,334.534 317.5,338C 315.559,338.743 313.726,338.576 312,337.5C 311.294,335.045 312.127,333.378 314.5,332.5 Z"/></g>
<g><path style="opacity:1" fill="#eaeaea" d="M 258.5,334.5 C 260.167,334.5 261.833,334.5 263.5,334.5C 263.112,340.845 260.779,341.845 256.5,337.5C 257.193,336.482 257.859,335.482 258.5,334.5 Z"/></g>
<g><path style="opacity:1" fill="#ededed" d="M 241.5,335.5 C 243.5,335.5 245.5,335.5 247.5,335.5C 247.36,340.747 245.194,341.747 241,338.5C 240.53,337.423 240.697,336.423 241.5,335.5 Z"/></g>
<g><path style="opacity:1" fill="#e6e6e6" d="M 214.5,336.5 C 221.024,338.095 221.024,340.429 214.5,343.5C 213.167,342.833 212.167,341.833 211.5,340.5C 212.524,339.148 213.524,337.815 214.5,336.5 Z"/></g>
<g><path style="opacity:1" fill="#e4e4e4" d="M 228.5,335.5 C 234.1,336.623 234.767,338.956 230.5,342.5C 227.497,340.822 226.831,338.489 228.5,335.5 Z"/></g>
<g><path style="opacity:1" fill="#dbdbdb" d="M 187.5,337.5 C 188.833,337.5 190.167,337.5 191.5,337.5C 191.66,339.199 191.494,340.866 191,342.5C 185.442,344.06 184.275,342.393 187.5,337.5 Z"/></g>
<g><path style="opacity:1" fill="#efefef" d="M 200.5,336.5 C 204.068,336.759 205.401,338.759 204.5,342.5C 198.53,343.153 197.197,341.153 200.5,336.5 Z"/></g>
<g><path style="opacity:1" fill="#f5eae7" d="M 304.5,352.5 C 309.931,351.094 312.265,353.094 311.5,358.5C 312.5,358.5 313.5,358.5 314.5,358.5C 312.812,363.992 312.145,369.659 312.5,375.5C 311.167,375.5 309.833,375.5 308.5,375.5C 308.827,370.786 308.493,366.12 307.5,361.5C 306.571,362.689 306.238,364.022 306.5,365.5C 298.5,366.167 298.5,366.833 306.5,367.5C 306.5,368.833 306.5,370.167 306.5,371.5C 304.401,370.769 302.401,370.769 300.5,371.5C 302.396,372.466 304.396,372.799 306.5,372.5C 306.5,373.5 306.5,374.5 306.5,375.5C 303.552,375.777 300.719,375.444 298,374.5C 297.374,371.137 297.041,367.804 297,364.5C 298.491,362.996 300.324,362.163 302.5,362C 299.854,361.503 297.187,361.336 294.5,361.5C 294.5,360.5 294.5,359.5 294.5,358.5C 299.167,358.5 303.833,358.5 308.5,358.5C 308.719,357.325 308.386,356.325 307.5,355.5C 306.158,357.005 304.492,357.672 302.5,357.5C 302.392,355.486 303.058,353.82 304.5,352.5 Z"/></g>
<g><path style="opacity:1" fill="#f5e9e7" d="M 255.5,353.5 C 261.225,352.717 264.558,355.217 265.5,361C 263.671,365.972 263.005,371.139 263.5,376.5C 262.5,376.5 261.5,376.5 260.5,376.5C 259.833,357.833 259.167,357.833 258.5,376.5C 249.39,377.058 246.39,373.058 249.5,364.5C 251.115,363.846 252.782,363.346 254.5,363C 251.854,362.503 249.187,362.336 246.5,362.5C 246.173,367.214 246.507,371.88 247.5,376.5C 249.692,377.859 251.359,379.692 252.5,382C 248.625,380.24 246.625,379.74 246.5,380.5C 246.5,381.5 246.5,382.5 246.5,383.5C 241.672,384.16 239.839,382.16 241,377.5C 243.551,374.938 244.051,371.938 242.5,368.5C 241.822,375.387 238.656,377.054 233,373.5C 231.349,368.841 232.849,366.174 237.5,365.5C 237.5,364.5 237.5,363.5 237.5,362.5C 235.167,362.5 232.833,362.5 230.5,362.5C 230.5,361.5 230.5,360.5 230.5,359.5C 240.167,359.5 249.833,359.5 259.5,359.5C 259.649,358.448 259.483,357.448 259,356.5C 257.89,358.037 256.39,358.703 254.5,358.5C 254.366,356.708 254.699,355.042 255.5,353.5 Z"/></g>
<g><path style="opacity:1" fill="#f5e6e3" d="M 279.5,352.5 C 285.64,351.796 289.973,354.296 292.5,360C 290.659,365.31 289.992,370.81 290.5,376.5C 289.167,376.5 287.833,376.5 286.5,376.5C 286.5,371.833 286.5,367.167 286.5,362.5C 285.127,362.343 283.793,362.51 282.5,363C 284.523,366.183 285.023,369.683 284,373.5C 282.989,374.337 281.822,374.67 280.5,374.5C 281.449,371.792 281.449,369.126 280.5,366.5C 279.513,369.768 279.18,373.102 279.5,376.5C 276.529,375.933 273.695,374.933 271,373.5C 270.333,370.5 270.333,367.5 271,364.5C 272.011,363.663 273.178,363.33 274.5,363.5C 273.551,366.208 273.551,368.874 274.5,371.5C 275.484,368.572 275.817,365.572 275.5,362.5C 272.833,362.5 270.167,362.5 267.5,362.5C 267.5,361.5 267.5,360.5 267.5,359.5C 273.849,359.265 280.183,358.765 286.5,358C 282.932,356.815 279.265,356.315 275.5,356.5C 276.549,354.784 277.882,353.451 279.5,352.5 Z"/></g>
<g><path style="opacity:1" fill="#f5ebe8" d="M 199.5,360.5 C 208.857,360.168 218.19,360.502 227.5,361.5C 226.757,362.182 226.091,362.849 225.5,363.5C 225.5,364.833 225.5,366.167 225.5,367.5C 221.092,367.062 219.425,369.062 220.5,373.5C 222.5,373.5 224.5,373.5 226.5,373.5C 226.5,374.833 226.5,376.167 226.5,377.5C 217.992,378.477 215.158,374.81 218,366.5C 218.903,365.299 220.069,364.465 221.5,364C 217.833,363.333 214.167,363.333 210.5,364C 214.698,363.866 216.364,365.866 215.5,370C 216.283,373.594 214.95,375.427 211.5,375.5C 212.449,372.792 212.449,370.126 211.5,367.5C 210.513,370.768 210.18,374.102 210.5,377.5C 207.52,377.38 204.687,376.713 202,375.5C 201.333,372.167 201.333,368.833 202,365.5C 203.011,364.663 204.178,364.33 205.5,364.5C 204.551,367.208 204.551,369.874 205.5,372.5C 206.484,369.572 206.817,366.572 206.5,363.5C 203.833,363.5 201.167,363.5 198.5,363.5C 198.5,365.167 198.5,366.833 198.5,368.5C 197.167,368.5 195.833,368.5 194.5,368.5C 194.5,370.5 194.5,372.5 194.5,374.5C 196.167,374.5 197.833,374.5 199.5,374.5C 199.5,375.5 199.5,376.5 199.5,377.5C 190.992,378.477 188.158,374.81 191,366.5C 192.509,365.91 194.009,365.244 195.5,364.5C 193.257,363.526 190.924,363.192 188.5,363.5C 188.5,368.167 188.5,372.833 188.5,377.5C 187.167,377.5 185.833,377.5 184.5,377.5C 184.995,372.139 184.329,366.972 182.5,362C 185.125,354.875 190.125,352.542 197.5,355C 198.337,356.011 198.67,357.178 198.5,358.5C 195.102,358.18 191.768,358.513 188.5,359.5C 192.107,360.489 195.774,360.823 199.5,360.5 Z"/></g>
<g><path style="opacity:1" fill="#f5f0ee" d="M 331.5,357.5 C 339.495,356.997 343.328,360.664 343,368.5C 341.471,371.934 338.804,373.6 335,373.5C 327.841,372.607 325.508,368.607 328,361.5C 329.376,360.295 330.542,358.962 331.5,357.5 Z"/></g>
<g><path style="opacity:1" fill="#eea08f" d="M 199.5,360.5 C 208.986,359.506 218.652,359.173 228.5,359.5C 228.5,360.833 228.5,362.167 228.5,363.5C 227.5,363.5 226.5,363.5 225.5,363.5C 226.091,362.849 226.757,362.182 227.5,361.5C 218.19,360.502 208.857,360.168 199.5,360.5 Z"/></g>
<g><path style="opacity:1" fill="#f6f0ee" d="M 159.5,361.5 C 171.764,360.596 174.764,365.429 168.5,376C 163.239,378.748 159.072,377.581 156,372.5C 154.882,368.077 156.049,364.41 159.5,361.5 Z"/></g>
<g><path style="opacity:1" fill="#e76446" d="M 252.5,366.5 C 253.649,366.791 254.316,367.624 254.5,369C 254.167,369.833 253.833,370.667 253.5,371.5C 252.548,369.955 252.215,368.288 252.5,366.5 Z"/></g>
</svg>
